HIERARCHY
ROOT root
{
	OFFSET	0	13.1	24.9
	CHANNELS 6  Xposition Yposition Zposition Xrotation Yrotation Zrotation
	JOINT spine_1
	{
		OFFSET	0	9.99999	0
		CHANNELS 3  Xrotation Yrotation Zrotation
		JOINT spine_2
		{
			OFFSET	0	112	-10
			CHANNELS 3  Xrotation Yrotation Zrotation
			JOINT spine_3
			{
				OFFSET	0	206.5	19.3
				CHANNELS 3  Xrotation Yrotation Zrotation
				JOINT spine_4
				{
					OFFSET	0	110.4	14.6
					CHANNELS 3  Xrotation Yrotation Zrotation
					JOINT neck_1
					{
						OFFSET	0	71.8	-50.3
						CHANNELS 3  Xrotation Yrotation Zrotation
						JOINT neck_2
						{
							OFFSET	0	86.2	-25.8
							CHANNELS 3  Xrotation Yrotation Zrotation
							JOINT head_ee
							{
								OFFSET	0	179.8	-8.7
								CHANNELS 3  Xrotation Yrotation Zrotation
								End Site
								{
									OFFSET	1	0	0
								}
							}
						}
					}
					JOINT left_clavicle
					{
						OFFSET	-43.2	22.4	-70.8
						CHANNELS 3  Xrotation Yrotation Zrotation
						JOINT left_shoulder
						{
							OFFSET	-93.9	-5.79999	48.7
							CHANNELS 3  Xrotation Yrotation Zrotation
							JOINT left_elbow
							{
								OFFSET	-291.4	-30.8	15.2
								CHANNELS 3  Xrotation Yrotation Zrotation
								JOINT left_lowarm_twist
								{
									OFFSET	-110.7	-3.89999	13.6
									CHANNELS 3  Xrotation Yrotation Zrotation
									JOINT left_hand
									{
										OFFSET	-110.7	-3.89999	13.6
										CHANNELS 3  Xrotation Yrotation Zrotation
										JOINT left_ee
										{
											OFFSET	-80.8	-5.10001	12.1
											CHANNELS 3  Xrotation Yrotation Zrotation
											End Site
											{
												OFFSET	1	0	0
											}
										}
									}
								}
							}
						}
					}
					JOINT right_clavicle
					{
						OFFSET	43.2	22.4	-70.8
						CHANNELS 3  Xrotation Yrotation Zrotation
						JOINT right_shoulder
						{
							OFFSET	93.9	-5.79999	48.7
							CHANNELS 3  Xrotation Yrotation Zrotation
							JOINT right_elbow
							{
								OFFSET	291.4	-30.8	15.2
								CHANNELS 3  Xrotation Yrotation Zrotation
								JOINT right_lowarm_twist
								{
									OFFSET	110.7	-3.89999	13.6
									CHANNELS 3  Xrotation Yrotation Zrotation
									JOINT right_hand
									{
										OFFSET	110.7	-3.89999	13.6
										CHANNELS 3  Xrotation Yrotation Zrotation
										JOINT right_ee
										{
											OFFSET	80.8	-5.10001	12.1
											CHANNELS 3  Xrotation Yrotation Zrotation
											End Site
											{
												OFFSET	1	0	0
											}
										}
									}
								}
							}
						}
					}
				}
			}
		}
	}
	JOINT left_hip
	{
		OFFSET	-82.8	-127.5	0.300001
		CHANNELS 3  Xrotation Yrotation Zrotation
		JOINT left_knee
		{
			OFFSET	-28.2	-396.7	2.2
			CHANNELS 3  Xrotation Yrotation Zrotation
			JOINT left_ankle
			{
				OFFSET	-11.7	-411.3	35.4
				CHANNELS 3  Xrotation Yrotation Zrotation
				JOINT left_toes
				{
					OFFSET	0	-60	-88.6
					CHANNELS 3  Xrotation Yrotation Zrotation
					JOINT left_foot_ee
					{
						OFFSET	-22.5	-16.5	-42.2
						CHANNELS 3  Xrotation Yrotation Zrotation
						End Site
						{
							OFFSET	1	0	0
						}
					}
				}
			}
		}
	}
	JOINT right_hip
	{
		OFFSET	82.8	-127.5	0.300001
		CHANNELS 3  Xrotation Yrotation Zrotation
		JOINT right_knee
		{
			OFFSET	28.2	-396.7	2.2
			CHANNELS 3  Xrotation Yrotation Zrotation
			JOINT right_ankle
			{
				OFFSET	11.7	-411.3	35.4
				CHANNELS 3  Xrotation Yrotation Zrotation
				JOINT right_toes
				{
					OFFSET	0	-60	-88.6
					CHANNELS 3  Xrotation Yrotation Zrotation
					JOINT right_foot_ee
					{
						OFFSET	22.5	-16.5	-42.2
						CHANNELS 3  Xrotation Yrotation Zrotation
						End Site
						{
							OFFSET	1	0	0
						}
					}
				}
			}
		}
	}
}
MOTION
Frames: 13
Frame Time: 0.02
546.129 636.549 -1811.09 -61.5532 68.2475 69.4513 11.2907 -1.10651 -4.55291 11.3019 -0.814875 -4.61391 11.3371 -0.753257 -4.62435 11.3103 -1.47342 -4.44794 -26.662 -12.3724 11.1548 -28.2511 -28.1148 3.32563 -0.0 0.0 -0.0 9.4315 10.0976 17.7908 -18.5882 23.907 66.2025 0.295158 -8.31862 0.0214644 41.068 -0.405973 -5.11973 6.59397 18.7561 58.0297 -0.0 0.0 -0.0 -3.43145 -21.3399 2.43685 -56.6558 64.9801 -32.4884 0.749685 20.3736 -0.134713 -85.2985 8.48921 -5.17715 4.79558 11.6668 -28.46 0.0 0.0 0.0 23.2822 -6.00805 -14.1722 -28.545 0.0970389 4.33444 40.523 5.7114 -4.90325 28.4247 -0.0 -0.0 -0.0 0.0 -0.0 29.3853 2.22601 -13.7015 -1.038 -0.0413464 -0.153927 35.6085 -26.0912 4.75888 38.4831 -0.0 -0.0 0.0 0.0 0.0 
543.28 632.667 -1816.94 -63.8757 68.4835 71.6619 11.3505 -1.10736 -4.54637 11.3616 -0.816139 -4.60745 11.3968 -0.759424 -4.61711 11.3701 -1.47837 -4.43982 -25.879 -11.2984 10.2383 -27.1353 -25.8663 3.31006 -0.0 0.0 -0.0 9.53237 10.7488 17.9111 -17.5053 23.49 65.4132 0.405828 -11.3672 0.0403897 42.6481 -0.494118 -5.30162 6.44589 12.2007 54.4775 -0.0 0.0 -0.0 -2.7538 -21.2877 1.47134 -54.9895 64.5999 -33.4922 0.675573 18.5033 -0.110046 -85.2112 8.47831 -5.17934 4.3679 8.09261 -27.0212 0.0 0.0 0.0 22.1997 -15.9996 -13.6201 -30.6598 0.0182288 4.6494 40.6355 14.3497 -4.97959 27.012 -0.0 -0.0 -0.0 0.0 -0.0 28.9642 1.12733 -13.7688 -0.745776 -0.0299888 -0.110519 34.745 -25.4871 4.64877 38.0163 -0.0 -0.0 0.0 0.0 0.0 
544.764 630.095 -1821.41 -67.3242 68.9228 75.354 11.3647 -1.094 -4.4612 11.3754 -0.808207 -4.5216 11.4098 -0.75351 -4.53102 11.3841 -1.45897 -4.35571 -24.4941 -10.2566 8.31363 -25.4489 -23.3176 2.3941 -0.0 0.0 -0.0 10.1562 10.2583 19.121 -18.7528 23.4389 63.9245 0.441984 -12.35 0.0478199 44.3646 -0.595532 -5.49642 6.73144 1.73893 53.028 -0.0 0.0 -0.0 -2.20285 -20.1018 0.885944 -50.6618 63.2483 -36.4629 0.612491 16.8785 -0.0908743 -85.1593 8.47183 -5.18064 3.48817 4.52752 -22.1288 0.0 0.0 0.0 21.6393 -22.5727 -13.1336 -24.024 0.226205 3.65281 36.3909 19.9785 -4.68092 22.0903 -0.0 -0.0 -0.0 0.0 -0.0 28.6479 -0.850254 -13.8943 -0.523283 -0.0211931 -0.0775068 35.6256 -25.8925 4.75458 39.7378 -0.0 -0.0 0.0 0.0 0.0 
544.339 633.164 -1823.0 -72.2858 68.2713 80.5389 11.1916 -1.08434 -4.39694 11.202 -0.80264 -4.45686 11.2364 -0.735133 -4.46847 11.2114 -1.43097 -4.29682 -23.4806 -8.73095 7.00673 -24.1205 -19.9604 2.18865 -0.0 0.0 -0.0 10.6147 9.97298 20.0175 -19.717 23.4457 62.9617 0.467967 -13.0518 0.0535328 45.6175 -0.67323 -5.63667 7.18975 -9.10859 50.8863 -0.0 0.0 -0.0 -1.69303 -19.749 0.193499 -42.8068 63.7617 -40.7105 0.532585 14.7796 -0.0690747 -85.1741 8.47368 -5.18027 2.18972 -0.292492 -14.9121 0.0 0.0 0.0 21.2456 -27.2749 -12.916 -19.4488 0.30179 2.955 35.2483 22.4896 -4.6217 16.5625 -0.0 -0.0 -0.0 0.0 -0.0 28.6029 -2.268 -13.7741 -0.329039 -0.0134089 -0.048714 36.8788 -25.9515 4.88739 40.135 -0.0 -0.0 0.0 0.0 0.0 
528.764 638.951 -1830.21 -75.6902 68.4539 84.1183 10.8232 -1.18871 -4.40481 10.8335 -0.906298 -4.47134 10.8772 -0.810702 -4.48962 10.8523 -1.50893 -4.30581 -25.1294 -7.82477 7.67622 -25.6796 -18.2821 3.06463 -0.0 0.0 -0.0 10.2513 7.88977 19.5602 -20.5832 21.9348 64.4338 0.421629 -11.7976 0.0435623 47.6591 -0.806369 -5.8615 7.92947 -18.2278 50.7294 -0.0 0.0 -0.0 -1.68881 -22.7865 -0.296316 -40.2851 63.0617 -41.4807 0.411023 11.5088 -0.0414199 -85.5763 8.52388 -5.17006 0.178531 -6.23851 -3.77158 0.0 0.0 0.0 20.6972 -30.6152 -12.7768 -18.7751 0.308203 2.85184 38.59 23.8571 -4.9957 11.7568 -0.0 -0.0 -0.0 0.0 -0.0 28.6976 -4.84147 -13.4127 -2.62841 -0.0992625 -0.391126 37.2705 -24.8089 4.89221 40.1784 -0.0 -0.0 0.0 0.0 0.0 
525.52 642.442 -1834.19 -78.6802 69.0995 86.89 10.5896 -1.23967 -4.2734 10.5992 -0.965492 -4.34344 10.6477 -0.8552 -4.36645 10.6244 -1.53348 -4.17714 -26.2227 -7.20452 8.2347 -26.6984 -17.152 3.80108 -0.0 0.0 -0.0 10.0464 6.48088 19.2991 -21.4371 20.9114 65.6319 0.384451 -10.7828 0.0362833 49.0571 -0.90214 -6.01269 8.59575 -24.6031 50.7113 -0.0 0.0 -0.0 -1.63705 -24.1363 -0.580791 -39.5214 62.2245 -40.3335 0.327561 9.2169 -0.0264036 -85.7492 8.54544 -5.16556 -1.27975 -10.6002 3.7865 0.0 0.0 0.0 20.7422 -33.2006 -12.6891 -18.3237 0.311822 2.78267 40.9364 24.8041 -5.25046 8.37601 -0.0 -0.0 -0.0 0.0 -0.0 28.7632 -6.64871 -13.253 -4.25404 -0.151627 -0.635109 37.4772 -24.0198 4.88992 40.1873 -0.0 -0.0 0.0 0.0 0.0 
521.122 650.036 -1845.34 -89.5841 69.3064 98.3999 10.5935 -1.28242 -4.2402 10.6029 -1.01026 -4.31303 10.6547 -0.901368 -4.33705 10.6319 -1.57443 -4.14082 -23.9605 -8.89947 8.14456 -24.6406 -20.7211 3.08095 -0.0 0.0 -0.0 9.51886 5.15679 18.3754 -25.7659 18.2265 66.6367 0.346969 -9.75279 0.0296018 49.5248 -0.935001 -6.06274 8.77361 -25.7184 51.151 -0.0 0.0 -0.0 -0.189676 -25.1529 -2.64768 -38.4004 58.7265 -41.0318 0.191919 5.43097 -0.00910259 -83.9394 8.31909 -5.2094 -2.48945 -13.7587 9.97042 0.0 0.0 0.0 18.7479 -36.6287 -14.0043 -18.421 0.311088 2.79759 42.646 23.7601 -5.37317 7.15217 -0.0 -0.0 -0.0 0.0 -0.0 28.7689 -11.0056 -13.0273 -7.74573 -0.240565 -1.16349 37.3074 -25.7305 4.92442 40.1709 -0.0 -0.0 0.0 0.0 0.0 
513.691 657.96 -1847.24 -94.6893 69.2531 104.262 10.6105 -1.23905 -4.34735 10.6205 -0.960187 -4.4172 10.6689 -0.849701 -4.43973 10.6447 -1.53959 -4.25039 -21.0677 -10.0507 8.13818 -21.7961 -23.3412 2.98817 -0.0 0.0 -0.0 9.94336 2.66338 19.3886 -24.7753 17.1601 66.0636 0.260992 -7.36697 0.0168021 50.2619 -0.987621 -6.14109 8.46699 -25.6304 48.4196 -0.0 0.0 -0.0 0.883526 -25.2479 -4.07008 -37.2242 56.4635 -41.6163 0.160836 4.55543 -0.0063972 -82.8893 8.1871 -5.23152 -3.46466 -14.1543 16.0271 0.0 0.0 0.0 20.8994 -40.3969 -14.166 -18.1525 0.313052 2.75644 41.7177 24.6929 -5.31947 5.25282 -0.0 -0.0 -0.0 0.0 -0.0 28.4899 -14.0133 -12.9502 -10.3008 -0.285159 -1.553 39.5814 -27.2288 5.20434 38.7495 -0.0 -0.0 0.0 0.0 0.0 
512.75 658.528 -1848.53 -100.8 68.8147 111.028 10.457 -1.2101 -4.41757 10.4674 -0.926835 -4.48543 10.5139 -0.80237 -4.50931 10.4887 -1.5038 -4.32657 -17.9448 -11.2103 8.58044 -18.6312 -26.1849 3.53569 -0.0 0.0 -0.0 10.504 0.970042 20.6418 -24.5356 16.0045 65.7566 0.195751 -5.53876 0.00946897 50.5373 -1.00755 -6.1702 8.23165 -25.596 46.3661 -0.0 0.0 -0.0 1.17091 -24.5396 -4.39696 -37.5219 54.2704 -40.2047 0.168747 4.77851 -0.00704089 -80.1583 7.84192 -5.27758 -4.29607 -13.834 21.7502 0.0 0.0 0.0 22.0595 -42.7794 -14.2422 -17.5247 0.316891 2.66019 42.4978 24.9293 -5.39881 3.70458 -0.0 -0.0 -0.0 0.0 -0.0 28.4329 -17.1797 -12.6961 -11.6888 -0.302088 -1.76529 41.6901 -27.7699 5.42939 36.5164 -0.0 -0.0 0.0 0.0 0.0 
506.601 657.44 -1848.47 -108.566 68.5835 119.747 10.0456 -1.20166 -4.60281 10.057 -0.906664 -4.66974 10.1039 -0.743465 -4.69843 10.0761 -1.47541 -4.52265 -14.5961 -12.7225 8.21383 -15.1688 -29.1904 3.44493 -0.0 0.0 -0.0 11.1545 -0.0962579 22.0692 -26.8276 15.5361 64.9524 0.176683 -5.0021 0.00771733 50.595 -1.01173 -6.17628 8.06765 -25.6197 44.9249 -0.0 0.0 -0.0 1.40728 -24.0786 -4.68276 -37.2401 51.9065 -39.3592 0.172736 4.89091 -0.00737712 -77.9123 7.55643 -5.30298 -4.78527 -13.4553 25.3791 0.0 0.0 0.0 23.8716 -44.7283 -13.8947 -16.5557 0.320746 2.51157 42.1564 26.0241 -5.40642 2.65553 -0.0 -0.0 -0.0 0.0 -0.0 28.2445 -19.8695 -12.4854 -12.6867 -0.31108 -1.91814 42.4918 -27.3665 5.48858 35.1661 -0.0 -0.0 0.0 0.0 0.0 
503.705 658.965 -1849.91 -111.941 67.6324 123.597 9.80557 -1.20515 -4.69761 9.81738 -0.90414 -4.76457 9.86532 -0.717667 -4.79613 9.83622 -1.46532 -4.62322 -12.5251 -14.0095 7.79855 -12.9921 -31.5062 3.20748 -0.0 0.0 -0.0 11.7728 -0.762113 23.4301 -27.698 15.0239 64.1797 0.171996 -4.87005 0.00731405 50.7454 -1.02269 -6.19212 7.56472 -24.7339 41.5255 -0.0 0.0 -0.0 1.44227 -23.7343 -4.70732 -37.016 50.2664 -38.7458 0.185787 5.25846 -0.00853151 -76.3405 7.35604 -5.31403 -5.14407 -13.362 28.0012 0.0 0.0 0.0 25.4305 -45.197 -13.7671 -11.279 0.297625 1.70257 42.479 26.2652 -5.44501 1.62163 -0.0 -0.0 -0.0 0.0 -0.0 27.4372 -21.491 -12.5789 -13.8568 -0.31823 -2.09753 40.8138 -25.8613 5.2748 34.0516 -0.0 -0.0 0.0 0.0 0.0 
492.327 663.014 -1850.02 -116.445 65.8926 128.495 9.63422 -1.24522 -4.75628 9.64631 -0.940404 -4.82565 9.69818 -0.737475 -4.86072 9.66833 -1.49505 -4.68391 -11.2134 -14.8221 8.05643 -11.5591 -33.2546 3.62627 -0.0 0.0 -0.0 12.2287 -2.4258 24.531 -27.8808 14.3172 63.5706 0.190506 -5.39124 0.00896946 51.1015 -1.04879 -6.22951 7.02278 -23.5013 38.1717 -0.0 0.0 -0.0 1.37976 -23.7582 -4.62372 -38.281 48.5109 -38.0527 0.195043 5.51884 -0.00940068 -75.2164 7.21251 -5.31853 -5.3592 -12.4633 30.2204 0.0 0.0 0.0 25.9919 -45.3872 -13.6098 -8.05627 0.246912 1.21072 42.5766 24.6547 -5.39654 2.19155 -0.0 -0.0 -0.0 0.0 -0.0 27.3522 -22.6651 -12.3582 -14.3652 -0.320195 -2.1755 37.1135 -24.9655 4.88094 32.9059 -0.0 -0.0 0.0 0.0 0.0 
491.149 664.326 -1850.14 -118.83 64.4955 131.374 9.40301 -1.28002 -4.82668 9.41545 -0.970667 -4.89811 9.47112 -0.745218 -4.93735 9.4403 -1.51475 -4.75838 -10.0673 -15.7545 7.55003 -10.3137 -34.6985 3.25104 -0.0 0.0 -0.0 12.6125 -3.95689 25.4719 -27.8639 13.7838 63.3915 0.183932 -5.20622 0.00836234 51.371 -1.0687 -6.25771 6.39343 -22.6682 33.891 -0.0 0.0 -0.0 1.04113 -23.9428 -4.17695 -39.1282 48.0553 -37.9107 0.201613 5.70354 -0.0100431 -74.9293 7.17584 -5.31923 -5.68669 -12.3924 32.7484 0.0 0.0 0.0 26.1535 -45.5553 -13.8712 -5.79895 0.194952 0.868238 39.679 23.6485 -5.09505 4.41938 -0.0 -0.0 -0.0 0.0 -0.0 27.4851 -22.0541 -12.6642 -13.2341 -0.31488 -2.00204 34.607 -25.3475 4.62994 31.5418 -0.0 -0.0 0.0 0.0 0.0 
